<svg version="1.2" baseProfile="tiny-ps" xmlns="http://www.w3.org/2000/svg" viewBox="0 0 18 20" width="18" height="20">
	<g id="Set Ittinery">
		<g id="ittinery">
			<path id="Book of Wisdom" class="s0" d="m17.42 1.58v1.2v9.67v2.37v2.41v0.6v0.6c0 0.66-0.54 1.2-1.2 1.2h-10.83h-2.41c-1.33 0-2.41-1.08-2.41-2.41v-14.44c0-1.33 1.08-2.41 2.41-2.41h2.41h9.63h1.2c0.66 0 1.2 0.54 1.2 1.2zm-2.41 15.04c0 0.33-0.27 0.6-0.6 0.6h-9.03h-1.22c-0.66 0-1.19-0.53-1.19-1.19v-0.02c0-0.66 0.53-1.19 1.19-1.19h1.22h9.03c0.33 0 0.6 0.27 0.6 0.6v1.2zm0-4.78c0 0.33-0.27 0.6-0.6 0.6h-8.42c-0.33 0-0.6-0.27-0.6-0.6v-8.46c0-0.33 0.27-0.6 0.6-0.6h8.42c0.33 0 0.6 0.27 0.6 0.6v8.46zm-2.41-6.06v1.2c0 0.33-0.27 0.6-0.6 0.6h-3.61c-0.33 0-0.6-0.27-0.6-0.6v-1.2c0-0.33 0.27-0.6 0.6-0.6h3.61c0.33 0 0.6 0.27 0.6 0.6z" />
		</g>
	</g>
</svg>