<svg version="1.2" baseProfile="tiny-ps" xmlns="http://www.w3.org/2000/svg" viewBox="0 0 20 20" width="20" height="20">
	<title>Destination</title>
	<style>
		tspan { white-space:pre }
		.s0 { fill: #c1c1c1 } 
	</style>
	<g id="Destination">
		<path id="Forma 1" class="s0" d="m19.48 9.99c0 5.24-4.25 9.49-9.49 9.49c-5.24 0-9.48-4.25-9.48-9.49c0-5.24 4.25-9.48 9.48-9.48c5.24 0 9.49 4.25 9.49 9.48zm-7.51 5.22c-0.49 0.19-0.88 0.34-1.17 0.44c-0.29 0.1-0.63 0.15-1.01 0.15c-0.59 0-1.05-0.15-1.38-0.43c-0.33-0.29-0.49-0.65-0.49-1.1c0-0.17 0.01-0.35 0.04-0.53c0.03-0.18 0.06-0.38 0.12-0.61l0.61-2.16c0.05-0.21 0.1-0.41 0.14-0.59c0.04-0.18 0.05-0.35 0.05-0.51c0-0.27-0.06-0.47-0.17-0.58c-0.11-0.11-0.33-0.16-0.65-0.16c-0.16 0-0.32 0.02-0.49 0.07c-0.16 0.05-0.31 0.1-0.43 0.14l0.16-0.66c0.4-0.16 0.78-0.3 1.15-0.42c0.37-0.12 0.71-0.18 1.04-0.18c0.59 0 1.04 0.14 1.36 0.43c0.32 0.28 0.48 0.65 0.48 1.1c0 0.09-0.01 0.26-0.03 0.5c-0.02 0.24-0.06 0.45-0.12 0.65l-0.61 2.15c-0.05 0.17-0.09 0.37-0.13 0.59c-0.04 0.22-0.06 0.39-0.06 0.5c0 0.28 0.06 0.48 0.19 0.58c0.13 0.1 0.35 0.16 0.66 0.16c0.15 0 0.32-0.03 0.5-0.08c0.19-0.05 0.32-0.1 0.41-0.14l-0.16 0.66zm-0.11-8.73c-0.28 0.26-0.62 0.39-1.02 0.39c-0.4 0-0.74-0.13-1.03-0.39c-0.28-0.26-0.43-0.58-0.43-0.96c0-0.37 0.14-0.69 0.43-0.96c0.29-0.27 0.63-0.4 1.03-0.4c0.4 0 0.74 0.13 1.02 0.4c0.28 0.27 0.43 0.59 0.43 0.96c0 0.38-0.14 0.69-0.43 0.96z" />
	</g>
</svg>