<svg version="1.2" baseProfile="tiny-ps" xmlns="http://www.w3.org/2000/svg" viewBox="0 0 31 30" width="31" height="30">
	<title>footer</title>
	<style>
		tspan { white-space:pre }
		.s0 { fill: #3d3741 } 
	</style>
	<g id="footer">
		<path id="Forma 1" class="s0" d="m30.16 14.98c0 8.17-6.62 14.79-14.79 14.79c-8.17 0-14.79-6.62-14.79-14.79c0-8.17 6.62-14.79 14.79-14.79c8.17 0 14.79 6.62 14.79 14.79zm-7.04 7.19c0 0.31-0.25 0.56-0.56 0.56h-14.39c-0.31 0-0.56-0.25-0.56-0.56v-14.39c0-0.31 0.25-0.56 0.56-0.56h14.39c0.31 0 0.56 0.25 0.56 0.56v14.39zm-10.85-7.19c0 1.71 1.39 3.1 3.1 3.1c1.71 0 3.1-1.39 3.1-3.1c0-1.71-1.39-3.1-3.1-3.1c-1.71 0-3.1 1.39-3.1 3.1zm6.2-6.2h3.1v3.1h-3.1v-3.1zm1.51 6.2c0 2.54-2.07 4.61-4.61 4.61c-2.54 0-4.61-2.07-4.61-4.61c0-0.33 0.04-0.46 0.1-0.78h-1.69v6.98h12.4v-6.98h-1.69c0.07 0.31 0.1 0.45 0.1 0.78z" />
	</g>
</svg>