<svg version="1.2" baseProfile="tiny-ps" xmlns="http://www.w3.org/2000/svg" viewBox="0 0 24 22" width="24" height="22">
	<g id="Set Ittinery">
		<g id="ittinery">
			<path id="Printer" class="s0" d="m15.87 4.55h-7.74c-0.71 0-1.29-0.58-1.29-1.29v-1.29c0-0.71 0.58-1.29 1.29-1.29h7.74c0.71 0 1.29 0.58 1.29 1.29v1.29c0 0.71-0.58 1.29-1.29 1.29zm1.29 10.32h2.58v5.16c0 0.71-0.58 1.29-1.29 1.29h-12.9c-0.71 0-1.29-0.58-1.29-1.29v-5.16h2.58v3.87h10.32v-3.87zm5.16-11.61c0.71 0 1.29 0.58 1.29 1.29v1.29v1.29v7.74c0 0.71-0.58 1.29-1.29 1.29h-5.16v-2.58h-10.32v2.58h-5.16c-0.71 0-1.29-0.58-1.29-1.29v-10.32c0-0.71 0.58-1.29 1.29-1.29h18.06h1.29h1.29zm-1.29 3.87v5.8c0 0.36-0.29 0.64-0.64 0.64h-0.64v-1.29c0-0.71-0.58-1.29-1.29-1.29h-1.29h-10.32h-1.29c-0.71 0-1.29 0.58-1.29 1.29v1.29h-0.64c-0.36 0-0.64-0.29-0.64-0.64v-6.45c0-0.36 0.29-0.64 0.64-0.64h16.12h0.64c0.36 0 0.64 0.29 0.64 0.64v0.64z" />
		</g>
	</g>
</svg>