<svg version="1.2" baseProfile="tiny-ps" xmlns="http://www.w3.org/2000/svg" viewBox="0 0 28 28" width="28" height="28">
	<g id="footer">
		<path id="Forma 1" class="s0" d="m27.5 13.78c0 7.6-6.18 13.78-13.78 13.78c-7.6 0-13.78-6.18-13.78-13.78c0-7.6 6.18-13.78 13.78-13.78c7.6 0 13.78 6.18 13.78 13.78zm-7.63-3.15c0.01 0.14 0.01 0.27 0.01 0.41c0 4.19-3.19 9.02-9.03 9.02c-1.79 0-3.46-0.52-4.86-1.42c0.25 0.03 0.5 0.04 0.76 0.04c1.49 0 2.85-0.51 3.94-1.36c-1.39-0.03-2.56-0.94-2.96-2.2c0.19 0.04 0.39 0.06 0.6 0.06c0.29 0 0.57-0.04 0.84-0.11c-1.45-0.29-2.54-1.57-2.54-3.11c0-0.01 0-0.03 0-0.04c0.43 0.24 0.92 0.38 1.44 0.4c-0.85-0.57-1.41-1.54-1.41-2.64c0-0.58 0.16-1.13 0.43-1.6c1.56 1.92 3.9 3.18 6.54 3.31c-0.05-0.23-0.08-0.47-0.08-0.72c0-1.75 1.42-3.17 3.17-3.17c0.91 0 1.74 0.39 2.31 1c0.72-0.14 1.4-0.41 2.01-0.77c-0.24 0.74-0.74 1.36-1.4 1.75c0.64-0.08 1.25-0.25 1.82-0.5c-0.42 0.63-0.96 1.19-1.58 1.64z" />
	</g>
</svg>